<mxfile host="Electron" modified="2024-06-16T20:04:19.179Z" agent="Mozilla/5.0 (Windows NT 10.0; Win64; x64) AppleWebKit/537.36 (KHTML, like Gecko) draw.io/24.4.0 Chrome/120.0.6099.109 Electron/28.1.0 Safari/537.36" etag="O7OifRzfmH8651VFd6LP" version="24.4.0" type="device">
  <diagram name="Page-1" id="KKBp0JLNLz3GeorFrU5-">
    <mxGraphModel dx="584" dy="393" grid="1" gridSize="10" guides="1" tooltips="1" connect="1" arrows="1" fold="1" page="1" pageScale="1" pageWidth="827" pageHeight="1169" math="0" shadow="0">
      <root>
        <mxCell id="0" />
        <mxCell id="1" parent="0" />
        <mxCell id="vyHGGEQLWtGODyZbPcV4-1" value="" style="verticalLabelPosition=bottom;shadow=0;dashed=0;align=center;html=1;verticalAlign=top;shape=mxgraph.electrical.abstract.amplifier;" vertex="1" parent="1">
          <mxGeometry x="370" y="310" width="90" height="100" as="geometry" />
        </mxCell>
        <mxCell id="vyHGGEQLWtGODyZbPcV4-2" value="+" style="text;html=1;align=center;verticalAlign=middle;whiteSpace=wrap;rounded=0;" vertex="1" parent="1">
          <mxGeometry x="354" y="330" width="60" height="20" as="geometry" />
        </mxCell>
        <mxCell id="vyHGGEQLWtGODyZbPcV4-3" value="-" style="text;html=1;align=center;verticalAlign=middle;whiteSpace=wrap;rounded=0;" vertex="1" parent="1">
          <mxGeometry x="354" y="370" width="60" height="20" as="geometry" />
        </mxCell>
        <mxCell id="vyHGGEQLWtGODyZbPcV4-4" value="&lt;font color=&quot;#b300b3&quot;&gt;Signal Audio Mono AmplifiÃ©&lt;/font&gt;" style="endArrow=none;html=1;rounded=0;entryX=1;entryY=0.5;entryDx=0;entryDy=0;entryPerimeter=0;strokeColor=#B300B3;" edge="1" parent="1" target="vyHGGEQLWtGODyZbPcV4-1">
          <mxGeometry x="-0.4286" y="-10" width="50" height="50" relative="1" as="geometry">
            <mxPoint x="600" y="360" as="sourcePoint" />
            <mxPoint x="440" y="380" as="targetPoint" />
            <mxPoint as="offset" />
          </mxGeometry>
        </mxCell>
        <mxCell id="vyHGGEQLWtGODyZbPcV4-5" value="R2 = 15kOhms" style="pointerEvents=1;verticalLabelPosition=bottom;shadow=0;dashed=0;align=center;html=1;verticalAlign=top;shape=mxgraph.electrical.resistors.resistor_1;" vertex="1" parent="1">
          <mxGeometry x="370" y="480" width="100" height="20" as="geometry" />
        </mxCell>
        <mxCell id="vyHGGEQLWtGODyZbPcV4-6" value="" style="endArrow=none;html=1;rounded=0;entryX=1;entryY=0.5;entryDx=0;entryDy=0;entryPerimeter=0;strokeColor=#B300B3;" edge="1" parent="1" target="vyHGGEQLWtGODyZbPcV4-5">
          <mxGeometry x="-1" y="-50" width="50" height="50" relative="1" as="geometry">
            <mxPoint x="530" y="490" as="sourcePoint" />
            <mxPoint x="470" y="370" as="targetPoint" />
            <mxPoint x="30" y="10" as="offset" />
          </mxGeometry>
        </mxCell>
        <mxCell id="vyHGGEQLWtGODyZbPcV4-7" value="" style="endArrow=none;html=1;rounded=0;strokeColor=#B300B3;" edge="1" parent="1">
          <mxGeometry x="-1" y="-50" width="50" height="50" relative="1" as="geometry">
            <mxPoint x="530" y="490" as="sourcePoint" />
            <mxPoint x="530" y="360" as="targetPoint" />
            <mxPoint x="30" y="10" as="offset" />
          </mxGeometry>
        </mxCell>
        <mxCell id="vyHGGEQLWtGODyZbPcV4-8" value="R1 = 10kOhms" style="pointerEvents=1;verticalLabelPosition=bottom;shadow=0;dashed=0;align=center;html=1;verticalAlign=top;shape=mxgraph.electrical.resistors.resistor_1;" vertex="1" parent="1">
          <mxGeometry x="200" y="480" width="100" height="20" as="geometry" />
        </mxCell>
        <mxCell id="vyHGGEQLWtGODyZbPcV4-9" value="" style="endArrow=none;html=1;rounded=0;exitX=1;exitY=0.5;exitDx=0;exitDy=0;exitPerimeter=0;entryX=0;entryY=0.5;entryDx=0;entryDy=0;entryPerimeter=0;" edge="1" parent="1" source="vyHGGEQLWtGODyZbPcV4-8" target="vyHGGEQLWtGODyZbPcV4-5">
          <mxGeometry width="50" height="50" relative="1" as="geometry">
            <mxPoint x="230" y="510" as="sourcePoint" />
            <mxPoint x="280" y="460" as="targetPoint" />
          </mxGeometry>
        </mxCell>
        <mxCell id="vyHGGEQLWtGODyZbPcV4-10" value="" style="endArrow=none;html=1;rounded=0;" edge="1" parent="1">
          <mxGeometry width="50" height="50" relative="1" as="geometry">
            <mxPoint x="340" y="380" as="sourcePoint" />
            <mxPoint x="340" y="490" as="targetPoint" />
          </mxGeometry>
        </mxCell>
        <mxCell id="vyHGGEQLWtGODyZbPcV4-11" value="" style="endArrow=none;html=1;rounded=0;exitX=1;exitY=0.5;exitDx=0;exitDy=0;exitPerimeter=0;entryX=0.051;entryY=0.701;entryDx=0;entryDy=0;entryPerimeter=0;" edge="1" parent="1" target="vyHGGEQLWtGODyZbPcV4-1">
          <mxGeometry width="50" height="50" relative="1" as="geometry">
            <mxPoint x="340" y="379.65999999999997" as="sourcePoint" />
            <mxPoint x="370" y="380" as="targetPoint" />
          </mxGeometry>
        </mxCell>
        <mxCell id="vyHGGEQLWtGODyZbPcV4-12" value="" style="pointerEvents=1;verticalLabelPosition=bottom;shadow=0;dashed=0;align=center;html=1;verticalAlign=top;shape=mxgraph.electrical.signal_sources.dc_source_1;" vertex="1" parent="1">
          <mxGeometry x="100" y="510" width="70" height="75" as="geometry" />
        </mxCell>
        <mxCell id="vyHGGEQLWtGODyZbPcV4-13" value="" style="endArrow=none;html=1;rounded=0;strokeColor=#FF0000;" edge="1" parent="1">
          <mxGeometry width="50" height="50" relative="1" as="geometry">
            <mxPoint x="140" y="490" as="sourcePoint" />
            <mxPoint x="140" y="520.34" as="targetPoint" />
          </mxGeometry>
        </mxCell>
        <mxCell id="vyHGGEQLWtGODyZbPcV4-14" value="" style="endArrow=none;html=1;rounded=0;entryX=0;entryY=0.5;entryDx=0;entryDy=0;entryPerimeter=0;strokeColor=#FF0000;" edge="1" parent="1" target="vyHGGEQLWtGODyZbPcV4-8">
          <mxGeometry width="50" height="50" relative="1" as="geometry">
            <mxPoint x="140" y="490" as="sourcePoint" />
            <mxPoint x="175" y="410.34" as="targetPoint" />
          </mxGeometry>
        </mxCell>
        <mxCell id="vyHGGEQLWtGODyZbPcV4-15" value="&lt;font color=&quot;#ff0000&quot;&gt;2.5V&lt;/font&gt;" style="edgeLabel;html=1;align=center;verticalAlign=middle;resizable=0;points=[];" vertex="1" connectable="0" parent="vyHGGEQLWtGODyZbPcV4-14">
          <mxGeometry x="-0.5453" relative="1" as="geometry">
            <mxPoint x="-14" y="-10" as="offset" />
          </mxGeometry>
        </mxCell>
        <mxCell id="vyHGGEQLWtGODyZbPcV4-16" value="" style="endArrow=none;html=1;rounded=0;" edge="1" parent="1">
          <mxGeometry width="50" height="50" relative="1" as="geometry">
            <mxPoint x="140" y="580" as="sourcePoint" />
            <mxPoint x="140" y="610" as="targetPoint" />
          </mxGeometry>
        </mxCell>
        <mxCell id="vyHGGEQLWtGODyZbPcV4-17" value="" style="pointerEvents=1;verticalLabelPosition=bottom;shadow=0;dashed=0;align=center;html=1;verticalAlign=top;shape=mxgraph.electrical.signal_sources.signal_ground;" vertex="1" parent="1">
          <mxGeometry x="120" y="610" width="40" height="30" as="geometry" />
        </mxCell>
        <mxCell id="vyHGGEQLWtGODyZbPcV4-18" value="" style="endArrow=none;html=1;rounded=0;entryX=0.051;entryY=0.296;entryDx=0;entryDy=0;entryPerimeter=0;strokeColor=#0000CC;" edge="1" parent="1" target="vyHGGEQLWtGODyZbPcV4-1">
          <mxGeometry width="50" height="50" relative="1" as="geometry">
            <mxPoint x="140" y="340" as="sourcePoint" />
            <mxPoint x="370" y="339.71000000000004" as="targetPoint" />
          </mxGeometry>
        </mxCell>
        <mxCell id="vyHGGEQLWtGODyZbPcV4-19" value="&lt;font color=&quot;#0000cc&quot;&gt;Signal Mono&lt;/font&gt;" style="edgeLabel;html=1;align=center;verticalAlign=middle;resizable=0;points=[];" vertex="1" connectable="0" parent="vyHGGEQLWtGODyZbPcV4-18">
          <mxGeometry x="-0.8042" relative="1" as="geometry">
            <mxPoint x="37" y="-20" as="offset" />
          </mxGeometry>
        </mxCell>
        <mxCell id="vyHGGEQLWtGODyZbPcV4-22" value="&lt;font style=&quot;font-size: 15px;&quot;&gt;5V&lt;/font&gt;" style="verticalLabelPosition=top;verticalAlign=bottom;shape=mxgraph.electrical.signal_sources.vdd;shadow=0;dashed=0;align=center;strokeWidth=1;fontSize=24;html=1;flipV=1;" vertex="1" parent="1">
          <mxGeometry x="400" y="320" width="40" height="20" as="geometry" />
        </mxCell>
        <mxCell id="vyHGGEQLWtGODyZbPcV4-23" value="" style="verticalLabelPosition=top;verticalAlign=bottom;shape=mxgraph.electrical.signal_sources.vdd;shadow=0;dashed=0;align=center;strokeWidth=1;fontSize=24;html=1;flipV=1;rotation=-180;" vertex="1" parent="1">
          <mxGeometry x="400" y="380" width="40" height="20" as="geometry" />
        </mxCell>
        <mxCell id="vyHGGEQLWtGODyZbPcV4-25" value="0V" style="text;html=1;align=center;verticalAlign=middle;whiteSpace=wrap;rounded=0;" vertex="1" parent="1">
          <mxGeometry x="390" y="400" width="60" height="30" as="geometry" />
        </mxCell>
        <mxCell id="vyHGGEQLWtGODyZbPcV4-26" value="TL081" style="text;html=1;align=center;verticalAlign=middle;whiteSpace=wrap;rounded=0;" vertex="1" parent="1">
          <mxGeometry x="340" y="280" width="60" height="30" as="geometry" />
        </mxCell>
      </root>
    </mxGraphModel>
  </diagram>
</mxfile>
